<svg xmlns="http://www.w3.org/2000/svg" width="574" height="201" viewBox="0 0 574 201">
  <defs>
    <linearGradient id="eiw-bg-m-a" x1="99.129%" x2="-2.589%" y1="60.341%" y2="43.735%">
      <stop offset="0%" stop-color="#963CFF"/>
      <stop offset="100%" stop-color="#37003C"/>
    </linearGradient>
    <filter id="eiw-bg-m-b" width="100%" height="100%" x="0%" y="0%" filterUnits="objectBoundingBox">
      <feGaussianBlur in="SourceGraphic"/>
    </filter>
  </defs>
  <path fill="url(#eiw-bg-m-a)" fill-rule="evenodd" d="M0,52.2731299 C39.9971956,72.3721206 84.3341774,89.6735676 128.550577,101.096473 L128.550577,101.096473 L100.596199,129.175744 C166.349367,150.340522 244.649661,160.42433 317.397809,160.42433 L317.397809,160.42433 L277.443976,200.557266 C290.374828,201.289473 293.073384,200.892637 306.18719,200.892637 L306.18719,200.892637 C400.843358,200.892637 492.043617,181.507355 574,146.536865 L574,146.536865 L574,47.2771752 C506.342458,84.1381549 419.631675,110.634259 339.482249,119.077017 L339.482249,119.077017 L386.418588,71.9233679 C350.581196,78.5991616 324.908978,79.7825083 287.145828,79.7825083 L287.145828,79.7825083 C243.521056,79.7825083 203.984212,75.3379466 162.99028,66.4911921 L162.99028,66.4911921 L192.25978,37.0883397 C126.402068,34.8051908 58.2194272,23.1382164 0,0 L0,0 L0,52.2731299 Z" filter="url(#eiw-bg-m-b)"/>
</svg>
